<svg xmlns="http://www.w3.org/2000/svg" xmlns:xlink="http://www.w3.org/1999/xlink" width="600" zoomAndPan="magnify" viewBox="0 0 450 449.999984" height="600" preserveAspectRatio="xMidYMid meet" version="1.0"><defs><clipPath id="aede4a54c5"><path d="M 285 266.382812 L 344 266.382812 L 344 342 L 285 342 Z M 285 266.382812 " clip-rule="nonzero"/></clipPath><clipPath id="29d262ccf5"><path d="M 309.535156 266.957031 L 285.367188 315.296875 L 297.101562 338.773438 C 297.980469 340.527344 299.773438 341.636719 301.734375 341.636719 L 338.480469 341.636719 C 342.339844 341.636719 344.839844 337.582031 343.113281 334.140625 Z M 309.535156 266.957031 " clip-rule="nonzero"/></clipPath><clipPath id="b099fb6333"><path d="M 0.359375 0.878906 L 59 0.878906 L 59 75.761719 L 0.359375 75.761719 Z M 0.359375 0.878906 " clip-rule="nonzero"/></clipPath><clipPath id="146514285c"><path d="M 24.535156 0.957031 L 0.367188 49.296875 L 12.101562 72.773438 C 12.980469 74.527344 14.773438 75.636719 16.734375 75.636719 L 53.480469 75.636719 C 57.339844 75.636719 59.839844 71.582031 58.113281 68.140625 Z M 24.535156 0.957031 " clip-rule="nonzero"/></clipPath><clipPath id="c20ece5429"><rect x="0" width="59" y="0" height="76"/></clipPath><clipPath id="3580735ea7"><path d="M 106 108 L 269.550781 108 L 269.550781 342 L 106 342 Z M 106 108 " clip-rule="nonzero"/></clipPath><clipPath id="99b0844c00"><path d="M 197.714844 250.847656 L 205.777344 234.742188 L 225.433594 195.429688 L 245.085938 234.742188 L 269.257812 186.402344 L 232.367188 112.648438 C 229.5 106.929688 221.347656 106.929688 218.46875 112.648438 L 181.609375 186.402344 L 152.453125 244.710938 L 141.328125 266.957031 L 106.640625 336.324219 C 105.421875 338.757812 107.1875 341.636719 109.921875 341.636719 L 150.058594 341.636719 C 151.445312 341.636719 152.714844 340.851562 153.34375 339.609375 L 165.5 315.296875 L 173.558594 299.1875 L 190.425781 265.425781 Z M 197.714844 250.847656 " clip-rule="nonzero"/></clipPath><clipPath id="d84816ca51"><path d="M 0 0 L 163.28125 0 L 163.28125 233.761719 L 0 233.761719 Z M 0 0 " clip-rule="nonzero"/></clipPath><clipPath id="be8c5313d5"><path d="M 91.714844 142.847656 L 99.777344 126.742188 L 119.433594 87.429688 L 139.085938 126.742188 L 163.257812 78.402344 L 126.367188 4.648438 C 123.5 -1.070312 115.347656 -1.070312 112.46875 4.648438 L 75.609375 78.402344 L 46.453125 136.710938 L 35.328125 158.957031 L 0.640625 228.324219 C -0.578125 230.757812 1.1875 233.636719 3.921875 233.636719 L 44.058594 233.636719 C 45.445312 233.636719 46.714844 232.851562 47.34375 231.609375 L 59.5 207.296875 L 67.558594 191.1875 L 84.425781 157.425781 Z M 91.714844 142.847656 " clip-rule="nonzero"/></clipPath><clipPath id="2cde6e389d"><rect x="0" width="164" y="0" height="234"/></clipPath><clipPath id="078df0377c"><path d="M 181.011719 108 L 447.59375 108 L 447.59375 342 L 181.011719 342 Z M 181.011719 108 " clip-rule="nonzero"/></clipPath><clipPath id="040c5ffd8f"><path d="M 446.636719 333.65625 L 385.171875 210.742188 L 336.136719 112.648438 C 333.273438 106.929688 325.121094 106.929688 322.242188 112.648438 L 285.367188 186.402344 L 245.085938 266.957031 L 240.363281 276.433594 L 225.433594 306.28125 L 207.84375 271.117188 L 205.765625 266.96875 L 204.195312 270.097656 L 181.59375 315.308594 L 192.847656 337.804688 C 194.027344 340.160156 196.433594 341.652344 199.078125 341.652344 L 251.773438 341.652344 C 254.417969 341.652344 256.824219 340.160156 258.003906 337.804688 L 277.304688 299.199219 L 290.835938 272.152344 L 301.472656 250.863281 L 329.191406 195.429688 L 352.886719 242.800781 L 400.78125 338.589844 C 401.710938 340.460938 403.636719 341.636719 405.714844 341.636719 L 441.703125 341.636719 C 445.808594 341.636719 448.480469 337.320312 446.636719 333.644531 " clip-rule="nonzero"/></clipPath><clipPath id="b0c9c729ee"><path d="M 0.441406 0 L 266.59375 0 L 266.59375 233.761719 L 0.441406 233.761719 Z M 0.441406 0 " clip-rule="nonzero"/></clipPath><clipPath id="371397a0a6"><path d="M 265.636719 225.65625 L 204.171875 102.742188 L 155.136719 4.648438 C 152.273438 -1.070312 144.121094 -1.070312 141.242188 4.648438 L 104.367188 78.402344 L 64.085938 158.957031 L 59.363281 168.433594 L 44.433594 198.28125 L 26.84375 163.117188 L 24.765625 158.96875 L 23.195312 162.097656 L 0.59375 207.308594 L 11.847656 229.804688 C 13.027344 232.160156 15.433594 233.652344 18.078125 233.652344 L 70.773438 233.652344 C 73.417969 233.652344 75.824219 232.160156 77.003906 229.804688 L 96.304688 191.199219 L 109.835938 164.152344 L 120.472656 142.863281 L 148.191406 87.429688 L 171.886719 134.800781 L 219.78125 230.589844 C 220.710938 232.460938 222.636719 233.636719 224.714844 233.636719 L 260.703125 233.636719 C 264.808594 233.636719 267.480469 229.320312 265.636719 225.644531 " clip-rule="nonzero"/></clipPath><clipPath id="8134d05f28"><rect x="0" width="267" y="0" height="234"/></clipPath><clipPath id="751447b407"><path d="M 2.007812 108 L 165.613281 108 L 165.613281 342 L 2.007812 342 Z M 2.007812 108 " clip-rule="nonzero"/></clipPath><clipPath id="92fd2441c4"><path d="M 121.660156 195.429688 L 141.316406 234.742188 L 165.484375 186.402344 L 128.609375 112.648438 C 125.746094 106.929688 117.59375 106.929688 114.714844 112.648438 L 90.9375 160.191406 L 3.222656 335.644531 C 1.847656 338.394531 3.851562 341.636719 6.925781 341.636719 L 46 341.636719 C 47.570312 341.636719 48.996094 340.75 49.703125 339.347656 L 115.417969 207.902344 Z M 121.660156 195.429688 " clip-rule="nonzero"/></clipPath><clipPath id="5befc72ea6"><path d="M 0.0078125 0 L 163.601562 0 L 163.601562 233.761719 L 0.0078125 233.761719 Z M 0.0078125 0 " clip-rule="nonzero"/></clipPath><clipPath id="c19099df6b"><path d="M 119.660156 87.429688 L 139.316406 126.742188 L 163.484375 78.402344 L 126.609375 4.648438 C 123.746094 -1.070312 115.59375 -1.070312 112.714844 4.648438 L 88.9375 52.191406 L 1.222656 227.644531 C -0.152344 230.394531 1.851562 233.636719 4.925781 233.636719 L 44 233.636719 C 45.570312 233.636719 46.996094 232.75 47.703125 231.347656 L 113.417969 99.902344 Z M 119.660156 87.429688 " clip-rule="nonzero"/></clipPath><clipPath id="3bef542409"><rect x="0" width="164" y="0" height="234"/></clipPath></defs><g clip-path="url(#aede4a54c5)"><g clip-path="url(#29d262ccf5)"><g transform="matrix(1, 0, 0, 1, 285, 266)"><g clip-path="url(#c20ece5429)"><g clip-path="url(#b099fb6333)"><g clip-path="url(#146514285c)"><rect x="-384" width="648" fill="#00aeef" height="647.999977" y="-364.999996" fill-opacity="1"/></g></g></g></g></g></g><g clip-path="url(#3580735ea7)"><g clip-path="url(#99b0844c00)"><g transform="matrix(1, 0, 0, 1, 106, 108)"><g clip-path="url(#2cde6e389d)"><g clip-path="url(#d84816ca51)"><g clip-path="url(#be8c5313d5)"><rect x="-205" width="648" fill="#00aeef" height="647.999977" y="-206.999996" fill-opacity="1"/></g></g></g></g></g></g><g clip-path="url(#078df0377c)"><g clip-path="url(#040c5ffd8f)"><g transform="matrix(1, 0, 0, 1, 181, 108)"><g clip-path="url(#8134d05f28)"><g clip-path="url(#b0c9c729ee)"><g clip-path="url(#371397a0a6)"><rect x="-280" width="648" fill="#2b3890" height="647.999977" y="-206.999996" fill-opacity="1"/></g></g></g></g></g></g><g clip-path="url(#751447b407)"><g clip-path="url(#92fd2441c4)"><g transform="matrix(1, 0, 0, 1, 2, 108)"><g clip-path="url(#3bef542409)"><g clip-path="url(#5befc72ea6)"><g clip-path="url(#c19099df6b)"><rect x="-101" width="648" fill="#2b3890" height="647.999977" y="-206.999996" fill-opacity="1"/></g></g></g></g></g></g></svg>